<mxfile host="app.diagrams.net" agent="Mozilla/5.0 (Macintosh; Intel Mac OS X 10_15_7) AppleWebKit/537.36 (KHTML, like Gecko) Chrome/129.0.0.0 Safari/537.36" version="24.7.17">
  <diagram name="Страница — 1" id="IxeDueFCB6zEFLlg2crT">
    <mxGraphModel dx="2154" dy="710" grid="1" gridSize="10" guides="1" tooltips="1" connect="1" arrows="1" fold="1" page="1" pageScale="1" pageWidth="827" pageHeight="1169" math="0" shadow="0">
      <root>
        <mxCell id="0" />
        <mxCell id="1" parent="0" />
        <mxCell id="hCKLv3JylPeoi-WXNe4o-3" value="Use Cases RoboRest" style="shape=umlFrame;whiteSpace=wrap;html=1;pointerEvents=0;recursiveResize=0;container=1;collapsible=0;width=160;" vertex="1" parent="1">
          <mxGeometry x="-10" y="30" width="920" height="790" as="geometry" />
        </mxCell>
        <mxCell id="hCKLv3JylPeoi-WXNe4o-23" value="" style="edgeStyle=orthogonalEdgeStyle;rounded=0;orthogonalLoop=1;jettySize=auto;html=1;" edge="1" parent="hCKLv3JylPeoi-WXNe4o-3" source="hCKLv3JylPeoi-WXNe4o-1" target="hCKLv3JylPeoi-WXNe4o-21">
          <mxGeometry relative="1" as="geometry" />
        </mxCell>
        <mxCell id="hCKLv3JylPeoi-WXNe4o-1" value="Посетитель&lt;div&gt;&lt;br&gt;&lt;/div&gt;" style="shape=umlActor;verticalLabelPosition=bottom;verticalAlign=top;html=1;outlineConnect=0;" vertex="1" parent="hCKLv3JylPeoi-WXNe4o-3">
          <mxGeometry x="40" y="120" width="30" height="60" as="geometry" />
        </mxCell>
        <mxCell id="hCKLv3JylPeoi-WXNe4o-19" value="Оформить заказ" style="swimlane;startSize=23;" vertex="1" parent="hCKLv3JylPeoi-WXNe4o-3">
          <mxGeometry x="130" y="40" width="680" height="710" as="geometry">
            <mxRectangle x="390" y="90" width="90" height="30" as="alternateBounds" />
          </mxGeometry>
        </mxCell>
        <mxCell id="hCKLv3JylPeoi-WXNe4o-21" value="Оформить &lt;br&gt;заказ" style="ellipse;whiteSpace=wrap;html=1;" vertex="1" parent="hCKLv3JylPeoi-WXNe4o-19">
          <mxGeometry x="20" y="90" width="110" height="40" as="geometry" />
        </mxCell>
        <mxCell id="hCKLv3JylPeoi-WXNe4o-24" value="&amp;lt;&amp;lt;include&amp;gt;&amp;gt;" style="html=1;verticalAlign=bottom;labelBackgroundColor=none;endArrow=open;endFill=0;dashed=1;rounded=0;entryX=0;entryY=0.5;entryDx=0;entryDy=0;exitX=0.888;exitY=0.113;exitDx=0;exitDy=0;exitPerimeter=0;" edge="1" parent="hCKLv3JylPeoi-WXNe4o-19" source="hCKLv3JylPeoi-WXNe4o-21" target="hCKLv3JylPeoi-WXNe4o-25">
          <mxGeometry width="160" relative="1" as="geometry">
            <mxPoint x="130" y="109.5" as="sourcePoint" />
            <mxPoint x="290" y="109.5" as="targetPoint" />
          </mxGeometry>
        </mxCell>
        <mxCell id="hCKLv3JylPeoi-WXNe4o-25" value="Просмотреть меню" style="ellipse;whiteSpace=wrap;html=1;" vertex="1" parent="hCKLv3JylPeoi-WXNe4o-19">
          <mxGeometry x="204" y="30" width="110" height="40" as="geometry" />
        </mxCell>
        <mxCell id="hCKLv3JylPeoi-WXNe4o-26" value="Оформить пункты заказа" style="ellipse;whiteSpace=wrap;html=1;" vertex="1" parent="hCKLv3JylPeoi-WXNe4o-19">
          <mxGeometry x="204" y="80" width="110" height="60" as="geometry" />
        </mxCell>
        <mxCell id="hCKLv3JylPeoi-WXNe4o-28" value="&amp;lt;&amp;lt;include&amp;gt;&amp;gt;" style="html=1;verticalAlign=bottom;labelBackgroundColor=none;endArrow=open;endFill=0;dashed=1;rounded=0;entryX=0;entryY=0.5;entryDx=0;entryDy=0;exitX=1;exitY=0.5;exitDx=0;exitDy=0;" edge="1" parent="hCKLv3JylPeoi-WXNe4o-19" source="hCKLv3JylPeoi-WXNe4o-21" target="hCKLv3JylPeoi-WXNe4o-26">
          <mxGeometry width="160" relative="1" as="geometry">
            <mxPoint x="140" y="110" as="sourcePoint" />
            <mxPoint x="280" y="109.5" as="targetPoint" />
          </mxGeometry>
        </mxCell>
        <mxCell id="hCKLv3JylPeoi-WXNe4o-29" value="Произвести оплату" style="ellipse;whiteSpace=wrap;html=1;" vertex="1" parent="hCKLv3JylPeoi-WXNe4o-19">
          <mxGeometry x="204" y="160" width="110" height="60" as="geometry" />
        </mxCell>
        <mxCell id="hCKLv3JylPeoi-WXNe4o-30" value="&amp;lt;&amp;lt;include&amp;gt;&amp;gt;" style="html=1;verticalAlign=bottom;labelBackgroundColor=none;endArrow=open;endFill=0;dashed=1;rounded=0;exitX=0.821;exitY=0.824;exitDx=0;exitDy=0;exitPerimeter=0;" edge="1" parent="hCKLv3JylPeoi-WXNe4o-19" source="hCKLv3JylPeoi-WXNe4o-21" target="hCKLv3JylPeoi-WXNe4o-29">
          <mxGeometry width="160" relative="1" as="geometry">
            <mxPoint x="110" y="130" as="sourcePoint" />
            <mxPoint x="184" y="130" as="targetPoint" />
          </mxGeometry>
        </mxCell>
        <mxCell id="hCKLv3JylPeoi-WXNe4o-31" value="&lt;font style=&quot;font-size: 10px;&quot;&gt;Зарегистрироваться в программе лояльности&lt;/font&gt;" style="ellipse;whiteSpace=wrap;html=1;" vertex="1" parent="hCKLv3JylPeoi-WXNe4o-19">
          <mxGeometry x="30" y="200" width="150" height="40" as="geometry" />
        </mxCell>
        <mxCell id="hCKLv3JylPeoi-WXNe4o-32" value="&amp;lt;&amp;lt;extend&amp;gt;&amp;gt;" style="html=1;verticalAlign=bottom;labelBackgroundColor=none;endArrow=open;endFill=0;dashed=1;rounded=0;entryX=0.56;entryY=1.027;entryDx=0;entryDy=0;entryPerimeter=0;exitX=0.5;exitY=0;exitDx=0;exitDy=0;" edge="1" parent="hCKLv3JylPeoi-WXNe4o-19" source="hCKLv3JylPeoi-WXNe4o-31" target="hCKLv3JylPeoi-WXNe4o-21">
          <mxGeometry width="160" relative="1" as="geometry">
            <mxPoint x="80" y="200" as="sourcePoint" />
            <mxPoint x="240" y="200" as="targetPoint" />
          </mxGeometry>
        </mxCell>
        <mxCell id="hCKLv3JylPeoi-WXNe4o-34" value="Получить заказ" style="ellipse;whiteSpace=wrap;html=1;" vertex="1" parent="hCKLv3JylPeoi-WXNe4o-19">
          <mxGeometry x="30" y="260" width="110" height="40" as="geometry" />
        </mxCell>
        <mxCell id="hCKLv3JylPeoi-WXNe4o-42" value="Оформить отказ&amp;nbsp;" style="ellipse;whiteSpace=wrap;html=1;" vertex="1" parent="hCKLv3JylPeoi-WXNe4o-19">
          <mxGeometry x="30" y="400" width="110" height="40" as="geometry" />
        </mxCell>
        <mxCell id="hCKLv3JylPeoi-WXNe4o-38" value="" style="html=1;verticalAlign=bottom;labelBackgroundColor=none;endArrow=block;endFill=1;rounded=0;exitX=0;exitY=0.5;exitDx=0;exitDy=0;" edge="1" parent="hCKLv3JylPeoi-WXNe4o-3" source="hCKLv3JylPeoi-WXNe4o-34" target="hCKLv3JylPeoi-WXNe4o-1">
          <mxGeometry width="160" relative="1" as="geometry">
            <mxPoint x="240" y="280" as="sourcePoint" />
            <mxPoint x="400" y="280" as="targetPoint" />
          </mxGeometry>
        </mxCell>
        <mxCell id="hCKLv3JylPeoi-WXNe4o-39" value="Посетитель&lt;div&gt;&lt;br&gt;&lt;/div&gt;" style="shape=umlActor;verticalLabelPosition=bottom;verticalAlign=top;html=1;outlineConnect=0;" vertex="1" parent="hCKLv3JylPeoi-WXNe4o-3">
          <mxGeometry x="870" y="80" width="30" height="60" as="geometry" />
        </mxCell>
        <mxCell id="hCKLv3JylPeoi-WXNe4o-40" value="Менеджер&amp;nbsp;&lt;br&gt;на&amp;nbsp;&lt;br&gt;гостеприимстве&lt;div&gt;&lt;br&gt;&lt;/div&gt;" style="shape=umlActor;verticalLabelPosition=bottom;verticalAlign=top;html=1;outlineConnect=0;" vertex="1" parent="hCKLv3JylPeoi-WXNe4o-3">
          <mxGeometry x="50" y="580" width="30" height="60" as="geometry" />
        </mxCell>
        <mxCell id="hCKLv3JylPeoi-WXNe4o-44" value="" style="html=1;verticalAlign=bottom;labelBackgroundColor=none;endArrow=block;endFill=1;rounded=0;entryX=0;entryY=0;entryDx=0;entryDy=0;" edge="1" parent="hCKLv3JylPeoi-WXNe4o-3" source="hCKLv3JylPeoi-WXNe4o-1" target="hCKLv3JylPeoi-WXNe4o-42">
          <mxGeometry width="160" relative="1" as="geometry">
            <mxPoint x="340" y="360" as="sourcePoint" />
            <mxPoint x="500" y="360" as="targetPoint" />
          </mxGeometry>
        </mxCell>
        <mxCell id="hCKLv3JylPeoi-WXNe4o-45" value="" style="html=1;verticalAlign=bottom;labelBackgroundColor=none;endArrow=block;endFill=1;rounded=0;exitX=0;exitY=1;exitDx=0;exitDy=0;entryX=0.848;entryY=0.222;entryDx=0;entryDy=0;entryPerimeter=0;" edge="1" parent="hCKLv3JylPeoi-WXNe4o-3" source="hCKLv3JylPeoi-WXNe4o-42" target="hCKLv3JylPeoi-WXNe4o-40">
          <mxGeometry width="160" relative="1" as="geometry">
            <mxPoint x="340" y="440" as="sourcePoint" />
            <mxPoint x="500" y="440" as="targetPoint" />
          </mxGeometry>
        </mxCell>
      </root>
    </mxGraphModel>
  </diagram>
</mxfile>
